<svg width="125" height="32" viewBox="0 0 125 32" fill="none" xmlns="http://www.w3.org/2000/svg">
<g clip-path="url(#clip0_5_85)">
<path d="M9.6701 0H1.72686L0 2.97809H1.71029C2.78585 2.97809 3.77855 3.5515 4.3155 4.48288L20.202 32L27.0531 20.1324H25.9245C24.491 20.1324 23.1668 19.3684 22.4509 18.1271L13.1437 2.00528C12.4278 0.763996 11.1036 0 9.6701 0Z" fill="#F0F6FE"/>
<path d="M38.6771 0H23.8297L31.2542 4.28733V12.8587L38.6771 0Z" fill="#F0F6FE"/>
<path d="M51.6153 21.8161L47.0661 10.1109H49.2239L52.6693 19.075L55.9971 10.1109H58.1383L53.7233 21.8161H51.617H51.6153Z" fill="#F0F6FE"/>
<path d="M60.412 21.8161V10.1093H62.419V21.8145H60.412V21.8161Z" fill="#F0F6FE"/>
<path d="M68.8574 21.8161V11.9157H64.9446V10.1093H74.7606V11.9157H70.8644V21.8161H68.8574Z" fill="#F0F6FE"/>
<path d="M74.6429 21.8161L79.4258 10.1109H81.4327L86.2321 21.8161H84.1589L82.9723 18.9226H77.906L76.7195 21.8161H74.6462H74.6429ZM78.622 17.151H82.2514L80.445 12.7029L78.622 17.151Z" fill="#F0F6FE"/>
<path d="M88.5887 21.8161V10.1093H90.7631L96.5651 18.9226V10.1093H98.5721V21.8145H96.3977L90.5957 13.0012V21.8145H88.5887V21.8161Z" fill="#F0F6FE"/>
<path d="M101.751 17.9199V10.1109H103.758V17.8702C103.758 19.375 104.979 20.2285 106.618 20.2285C108.257 20.2285 109.495 19.375 109.495 17.8702V10.1109H111.502V17.9199C111.502 20.2616 109.679 22.068 106.636 22.068C103.594 22.068 101.754 20.2948 101.754 17.9199H101.751Z" fill="#F0F6FE"/>
<path d="M114.677 21.8161V10.1093H120.396C122.621 10.1093 124.158 11.4633 124.158 13.4205C124.158 14.859 123.138 16.0456 121.583 16.4466C122.352 16.5974 122.904 17.0648 123.189 17.784L124.694 21.8145H122.553L121.199 18.1188C121.031 17.6498 120.647 17.3996 120.111 17.3996H116.683V21.8145H114.676L114.677 21.8161ZM116.684 15.6279H120.297C121.535 15.6279 122.17 14.7413 122.17 13.7221C122.17 12.6515 121.434 11.9157 120.297 11.9157H116.684V15.6279Z" fill="#F0F6FE"/>
</g>
<defs>
<clipPath id="clip0_5_85">
<rect width="124.55" height="32" fill="white"/>
</clipPath>
</defs>
</svg>
